<?xml version="1.0" encoding="UTF-8"?>
<svg version="1.1" xmlns="http://www.w3.org/2000/svg" width="1024" height="1024">
<path d="M0 0 C1.76655086 -0.00390215 3.53309857 -0.00954986 5.29963899 -0.0167709 C10.10890808 -0.03141173 14.91784595 -0.02141268 19.72710395 -0.00703418 C24.93093391 0.00413663 30.1347197 -0.00788695 35.33854675 -0.01687622 C45.51392351 -0.0307681 55.68917569 -0.02328306 65.86454645 -0.00820064 C77.72360992 0.00870508 89.58264275 0.00544356 101.44171456 0.00170528 C122.60384799 -0.00416561 143.76592182 0.00996939 164.92803955 0.03465271 C185.44726799 0.05858335 205.96641684 0.06565123 226.48565674 0.05516052 C248.85401607 0.04374485 271.22233864 0.04182836 293.59069753 0.05625862 C295.97675784 0.0577844 298.36281816 0.05930476 300.74887848 0.06081963 C302.50967858 0.06195635 302.50967858 0.06195635 304.3060504 0.06311603 C312.56661597 0.06785287 320.82716509 0.06601176 329.08773041 0.06175423 C339.15545153 0.05682189 349.2230975 0.06283763 359.29080144 0.08264852 C364.42446083 0.09250248 369.55800592 0.09764602 374.69167137 0.08975601 C379.39552274 0.08267458 384.09914394 0.08956123 388.80296507 0.10735964 C390.49985834 0.11138809 392.19677276 0.11043135 393.89365801 0.10384078 C413.80978715 0.0331383 429.59143548 4.55047479 444.69610596 17.93870544 C445.43860596 18.78433044 446.18110596 19.62995544 446.94610596 20.50120544 C447.48622314 21.11093201 448.02634033 21.72065857 448.58282471 22.34886169 C456.80107231 32.17153941 462.18957167 44.2540617 462.20337486 57.13540077 C462.20688094 57.87571385 462.21038701 58.61602694 462.21399933 59.37877375 C462.22329038 61.85517624 462.21839597 64.33134239 462.21353149 66.80775452 C462.21726892 68.6029458 462.22187081 70.39813546 462.22726214 72.19332254 C462.23949633 77.12351397 462.23923116 82.05363756 462.23687339 86.9838407 C462.23646532 92.30236339 462.24750347 97.62086429 462.25698853 102.93937683 C462.27360237 113.35892275 462.27909827 123.77844603 462.28021328 134.19800408 C462.28116368 142.66883944 462.28527357 151.13966734 462.29161453 159.61050034 C462.30922886 183.63045585 462.31845323 207.65039349 462.31695358 231.67035551 C462.31683372 233.61279078 462.31683372 233.61279078 462.31671143 235.59446716 C462.31662966 236.89100666 462.3165479 238.18754615 462.31646366 239.52337472 C462.31565096 260.53038916 462.33478425 281.53733186 462.36298816 302.54432555 C462.3917237 324.11768178 462.40552805 345.69100305 462.40380061 367.26437891 C462.40313688 379.3746998 462.40862133 391.48494552 462.43015671 403.59524918 C462.44837739 413.90763579 462.45270858 424.21991315 462.43913786 434.53230889 C462.43261244 439.79163657 462.43247573 445.05075472 462.44984436 450.31006241 C462.46559897 455.13032635 462.46268695 459.95021503 462.4452761 464.77046995 C462.44221145 466.50870561 462.44581829 468.24696945 462.45699625 469.98517187 C462.57064314 488.92075174 457.61792755 504.2160461 444.32501221 518.25120544 C433.57665548 528.4171389 420.06098622 534.73918814 405.19165611 534.76126766 C404.45048878 534.76507333 403.70932145 534.768879 402.94569451 534.7728 C400.47240147 534.78307247 397.9993398 534.7792177 395.52603149 534.77536011 C393.73068953 534.77981487 391.93534952 534.7851297 390.14001238 534.79122883 C385.21401439 534.80539065 380.28807955 534.80707247 375.36206412 534.80663192 C370.04626397 534.80828173 364.73048971 534.82135131 359.41470337 534.83282471 C347.79477332 534.85566102 336.17486154 534.86359382 324.55491209 534.86865115 C317.29689608 534.8719097 310.03888536 534.87843314 302.78087234 534.88565254 C282.67805083 534.90521653 262.57523422 534.92162197 242.47240257 534.92452908 C240.54328907 534.92481043 240.54328907 534.92481043 238.57520358 534.92509747 C235.96811525 534.92546372 233.36102693 534.92582741 230.7539386 534.92618858 C228.81274552 534.9264628 228.81274552 534.9264628 226.83233643 534.92674255 C225.53662474 534.9269231 224.24091306 534.92710365 222.90593739 534.92728967 C201.91257992 534.93083103 180.91932504 534.95785198 159.92600314 534.99524044 C138.36278015 535.03333599 116.79960805 535.05268664 95.23635066 535.05298859 C83.13325813 535.05357287 71.03028801 535.06204608 58.92722702 535.09098625 C48.62109967 535.11551671 38.31513936 535.12277166 28.00899069 535.10773873 C22.75353691 535.1005768 17.49841289 535.10139665 12.24299622 535.12414932 C7.42511927 535.14480735 2.60782418 535.14207532 -2.21004693 535.12127448 C-3.94625438 535.11779263 -5.68250439 535.12263382 -7.41865607 535.13697892 C-21.83533542 535.24835214 -33.70407698 532.43007632 -46.05389404 524.50120544 C-46.71647217 524.09643982 -47.37905029 523.69167419 -48.06170654 523.27464294 C-61.10164881 514.53021107 -68.35104677 498.95008596 -71.58905029 484.03636169 C-72.44901293 479.34631338 -73.14434783 475.21352362 -72.05389404 470.50120544 C-69.23148352 466.82967989 -65.73915275 464.26881032 -62.05389404 461.50120544 C-60.05100614 459.8171341 -58.0509248 458.12971828 -56.05389404 456.43870544 C-51.3154325 452.50120544 -51.3154325 452.50120544 -49.05389404 452.50120544 C-49.05389404 451.84120544 -49.05389404 451.18120544 -49.05389404 450.50120544 C-45.59235558 447.50120544 -45.59235558 447.50120544 -43.05389404 447.50120544 C-43.05389404 446.84120544 -43.05389404 446.18120544 -43.05389404 445.50120544 C-41.25311279 443.87229919 -41.25311279 443.87229919 -38.74139404 441.93870544 C-37.83131592 441.22843201 -36.92123779 440.51815857 -35.98358154 439.78636169 C-35.01678467 439.03226013 -34.04998779 438.27815857 -33.05389404 437.50120544 C-31.15315325 435.96559333 -29.25724469 434.42397932 -27.36639404 432.87620544 C-26.45631592 432.13241638 -25.54623779 431.38862732 -24.60858154 430.62229919 C-22.36872452 428.76260139 -20.17478401 426.8638937 -17.99139404 424.93870544 C-15.05389404 422.50120544 -15.05389404 422.50120544 -13.05389404 422.50120544 C-13.05389404 421.84120544 -13.05389404 421.18120544 -13.05389404 420.50120544 C-11.15545654 418.77464294 -11.15545654 418.77464294 -8.67889404 416.87620544 C-7.86678467 416.24456482 -7.05467529 415.61292419 -6.21795654 414.96214294 C-4.05389404 413.50120544 -4.05389404 413.50120544 -2.05389404 413.50120544 C-2.05389404 412.84120544 -2.05389404 412.18120544 -2.05389404 411.50120544 C-0.58579899 410.18966781 0.9480638 408.95126469 2.50860596 407.75120544 C5.7346647 405.24357396 8.89077134 402.71418756 11.94610596 400.00120544 C14.94610596 397.50120544 14.94610596 397.50120544 16.94610596 397.50120544 C16.94610596 396.84120544 16.94610596 396.18120544 16.94610596 395.50120544 C18.67657471 393.94261169 18.67657471 393.94261169 21.13360596 392.06370544 C25.99258498 388.27757792 30.70582116 384.35632765 35.39019775 380.35887146 C44.61441438 372.50120544 44.61441438 372.50120544 46.94610596 372.50120544 C46.94610596 371.84120544 46.94610596 371.18120544 46.94610596 370.50120544 C50.40764442 367.50120544 50.40764442 367.50120544 52.94610596 367.50120544 C52.94610596 366.84120544 52.94610596 366.18120544 52.94610596 365.50120544 C54.81719971 363.80198669 54.81719971 363.80198669 57.38360596 361.81370544 C58.28723877 361.10858826 59.19087158 360.40347107 60.12188721 359.67698669 C61.05387939 358.95897888 61.98587158 358.24097107 62.94610596 357.50120544 C64.65452806 356.16798585 66.36286901 354.83466227 68.07110596 353.50120544 C69.36221435 352.50048475 70.65365973 351.5001977 71.94610596 350.50120544 C63.48123193 341.76327097 54.07083386 333.25102405 43.94610596 326.50120544 C43.94610596 325.84120544 43.94610596 325.18120544 43.94610596 324.50120544 C43.13979736 324.16089294 43.13979736 324.16089294 42.31719971 323.81370544 C39.20752546 322.09237011 36.66905925 319.83005324 34.00860596 317.50120544 C28.80108742 312.99912968 23.46210479 308.74435601 17.90924072 304.67503357 C16.55338958 303.66208237 15.24436772 302.58698574 13.94610596 301.50120544 C13.94610596 300.84120544 13.94610596 300.18120544 13.94610596 299.50120544 C13.40727783 299.27304138 12.86844971 299.04487732 12.31329346 298.80979919 C9.22897178 297.10476988 6.71060672 294.87086906 4.07110596 292.56370544 C-1.8074374 287.50284785 -7.83890928 282.67421743 -13.96014404 277.91136169 C-14.98108154 277.11601013 -16.00201904 276.32065857 -17.05389404 275.50120544 C-18.01295654 274.77804138 -18.97201904 274.05487732 -19.96014404 273.30979919 C-20.65108154 272.71296326 -21.34201904 272.11612732 -22.05389404 271.50120544 C-22.05389404 270.84120544 -22.05389404 270.18120544 -22.05389404 269.50120544 C-22.92654907 269.09938049 -22.92654907 269.09938049 -23.8168335 268.68943787 C-26.09239915 267.48075315 -27.87492612 266.14266578 -29.84686279 264.48948669 C-30.55592773 263.89941833 -31.26499268 263.30934998 -31.99554443 262.70140076 C-33.10723999 261.76699158 -33.10723999 261.76699158 -34.24139404 260.81370544 C-39.62805804 256.31822801 -45.02277967 251.88697554 -50.68280029 247.73558044 C-51.13526123 247.32823669 -51.58772217 246.92089294 -52.05389404 246.50120544 C-52.05389404 245.84120544 -52.05389404 245.18120544 -52.05389404 244.50120544 C-54.00062778 243.5107692 -55.93747576 242.550436 -57.94971848 241.69950581 C-64.0353204 238.97367615 -68.79478648 235.40570624 -72.05389404 229.50120544 C-74.97328375 217.83639412 -74.06007396 205.2999841 -73.80792332 193.37239814 C-73.72212543 188.55282574 -73.7250926 183.7332395 -73.71716309 178.9130249 C-73.69143615 170.81799444 -73.60673167 162.72539551 -73.48065186 154.6313324 C-73.31968919 144.28514362 -73.24990471 133.94053854 -73.21141434 123.59324932 C-73.17803223 114.64725291 -73.10915581 105.70158244 -73.03126431 96.75587487 C-73.01513755 94.84825582 -73.00016908 92.94062661 -72.98637486 91.03298926 C-72.94686034 85.58595269 -72.88816826 80.13982792 -72.79901886 74.693367 C-72.77484581 73.05373874 -72.75687303 71.41400358 -72.74604797 69.77423286 C-72.60421002 50.10722758 -68.44816258 32.39043915 -54.44451904 17.71995544 C-50.60369923 14.155273 -46.51649909 11.23445944 -42.05389404 8.50120544 C-41.44416748 8.11319763 -40.83444092 7.72518982 -40.20623779 7.32542419 C-27.9759552 0.36357103 -13.65828291 -0.08464057 0 0 Z M175.94610596 112.50120544 C170.80163215 124.84794259 165.7270567 137.11063577 161.3369751 149.73777771 C157.15911333 161.69547741 152.58077534 173.51401027 147.82110596 185.25120544 C145.43138884 191.16736999 143.28458923 197.13989457 141.19561768 203.16624451 C139.1276134 209.09137988 136.80802837 214.88333895 134.44219971 220.69651794 C132.83550053 224.71274322 131.41871451 228.78763672 130.00860596 232.87620544 C127.79007017 239.29828272 125.35241409 245.58914347 122.6572876 251.82688904 C120.61173851 256.63768298 118.85568257 261.53575685 117.13360596 266.46995544 C113.82967135 275.93419983 110.242411 285.27893865 106.62335205 294.62620544 C103.04225005 303.88642879 99.60021211 313.17948093 96.33526611 322.55613708 C93.14427671 331.68923078 89.69366617 340.73597354 86.06719971 349.70433044 C82.14546435 359.48817196 78.36449243 369.33067207 74.63360596 379.18870544 C74.39142334 379.82308533 74.14924072 380.45746521 73.89971924 381.11106873 C72.35374731 385.22093198 71.16026124 389.25166195 69.94610596 393.50120544 C86.11610596 393.50120544 102.28610596 393.50120544 118.94610596 393.50120544 C124.91680105 377.18956887 124.91680105 377.18956887 130.51641846 360.78636169 C131.7212673 357.13422095 132.98381472 353.50332433 134.25079346 349.87229919 C134.66272949 348.69119568 135.07466553 347.51009216 135.49908447 346.29319763 C136.33042423 343.91407373 137.16419648 341.53579825 138.00054932 339.15843201 C138.38090332 338.06885193 138.76125732 336.97927185 139.15313721 335.85667419 C139.49836426 334.87336121 139.84359131 333.89004822 140.19927979 332.87693787 C141.04606855 330.59827264 141.04606855 330.59827264 140.94610596 328.50120544 C177.57610596 328.50120544 214.20610596 328.50120544 251.94610596 328.50120544 C252.93610596 332.95620544 252.93610596 332.95620544 253.94610596 337.50120544 C254.44756785 339.14767449 254.98040844 340.7855256 255.56719971 342.40354919 C255.86303955 343.23177185 256.15887939 344.05999451 256.46368408 344.91331482 C256.7672583 345.74669373 257.07083252 346.58007263 257.38360596 347.43870544 C259.48157066 353.24533035 261.45851259 359.0360383 263.12213135 364.98387146 C264.18569533 368.23317759 265.59931905 371.35870267 266.94610596 374.50120544 C268.92610596 380.77120544 270.90610596 387.04120544 272.94610596 393.50120544 C289.44610596 393.50120544 305.94610596 393.50120544 322.94610596 393.50120544 C320.30610596 386.57120544 317.66610596 379.64120544 314.94610596 372.50120544 C311.82110596 363.62620544 311.82110596 363.62620544 310.37579346 359.48167419 C308.77284962 354.95539177 306.98845395 350.50965226 305.18463135 346.06053162 C300.86252251 335.38819394 296.96312599 324.55492147 293.00836182 313.74266052 C286.94262723 297.16015681 280.73534708 280.63986637 274.32110596 264.18870544 C269.72452039 252.39858603 265.25341271 240.57375085 261.12554932 228.6103363 C259.5466561 224.06996664 257.80416726 219.61379028 256.00372314 215.15696716 C254.13626693 210.46763458 252.39299537 205.73189695 250.63360596 201.00120544 C247.88896896 193.64899424 245.11826232 186.30948541 242.25860596 179.00120544 C237.93442871 167.93806669 233.74451821 156.83824821 229.82110596 145.62620544 C227.68057432 139.51303269 225.40538481 133.49569765 222.94610596 127.50120544 C220.96610596 122.55120544 218.98610596 117.60120544 216.94610596 112.50120544 C203.41610596 112.50120544 189.88610596 112.50120544 175.94610596 112.50120544 Z " fill="#000000" transform="translate(501.05389404296875,428.49879455566406)"/>
<path d="M0 0 C0.74116733 -0.00380567 1.48233466 -0.00761134 2.24596161 -0.01153234 C4.71925464 -0.02180481 7.19231631 -0.01795003 9.66562462 -0.01409245 C11.46096659 -0.01854721 13.25630659 -0.02386204 15.05164373 -0.02996117 C19.97764172 -0.04412299 24.90357656 -0.0458048 29.82959199 -0.04536426 C35.14539214 -0.04701407 40.4611664 -0.06008365 45.77695274 -0.07155704 C57.3968828 -0.09439335 69.01679457 -0.10232616 80.63674402 -0.10738349 C87.89476003 -0.11064204 95.15277075 -0.11716547 102.41078377 -0.12438488 C122.51360529 -0.14394887 142.61642189 -0.16035431 162.71925354 -0.16326141 C164.64836704 -0.16354277 164.64836704 -0.16354277 166.61645254 -0.16382981 C169.22354086 -0.16419605 171.83062919 -0.16455975 174.43771751 -0.16492092 C176.37891059 -0.16519514 176.37891059 -0.16519514 178.35931969 -0.16547489 C179.65503137 -0.16565544 180.95074305 -0.16583599 182.28571872 -0.16602201 C203.2790762 -0.16956337 224.27233107 -0.19658432 245.26565297 -0.23397278 C266.82887596 -0.27206832 288.39204807 -0.29141898 309.95530546 -0.29172093 C322.05839798 -0.2923052 334.1613681 -0.30077842 346.26442909 -0.32971859 C356.57055645 -0.35424905 366.87651676 -0.361504 377.18266542 -0.34647106 C382.4381192 -0.33930914 387.69324323 -0.34012898 392.9486599 -0.36288166 C397.76653684 -0.38353969 402.58383193 -0.38080766 407.40170304 -0.36000682 C409.13791049 -0.35652497 410.87416051 -0.36136616 412.61031218 -0.37571125 C427.02699153 -0.48708448 438.8957331 2.33119134 451.24555016 10.26006222 C451.90812828 10.66482784 452.57070641 11.06959347 453.25336266 11.48662472 C466.30702791 20.24025907 473.41106931 35.72255706 476.77399248 50.5974738 C477.23369913 53.19314699 477.369793 55.55307437 477.36859798 58.18569565 C477.37058903 59.15706807 477.37258008 60.12844049 477.37463146 61.12924844 C477.37171862 62.18858596 477.36880578 63.24792349 477.36580467 64.33936214 C477.3666591 65.47069472 477.36751352 66.6020273 477.36839384 67.76764268 C477.37004365 71.56632001 477.36453536 75.36495339 477.35907555 79.16362667 C477.35823694 81.88354171 477.35890762 84.60345588 477.35951805 87.32337093 C477.36004231 93.183181 477.35690569 99.04297994 477.35128021 104.90278721 C477.34315202 113.37507666 477.34054864 121.84736073 477.33929222 130.31965365 C477.33710378 144.06549927 477.33044932 157.81133896 477.32098961 171.55718136 C477.31181012 184.90972012 477.30473191 198.26225727 477.3004818 211.61479855 C477.30021907 212.43789571 477.29995635 213.26099287 477.29968566 214.10903237 C477.29838062 218.23828285 477.29711692 222.36753335 477.29587376 226.49678385 C477.28550762 260.75121425 477.26789494 295.00563759 477.24555016 329.26006222 C476.67553874 329.26152878 476.10552732 329.26299534 475.51824284 329.26450634 C461.55825914 329.30178558 447.59850814 329.36107507 433.63871861 329.44396496 C426.88746059 329.48353802 420.13631546 329.51603948 413.38495445 329.53105831 C406.85545597 329.54633053 400.32630793 329.58096143 393.79696655 329.62837124 C391.32026104 329.64307681 388.84350546 329.65109692 386.36675644 329.65194607 C358.67071625 329.67097096 331.64896714 333.71494742 310.44867516 353.13506222 C308.24555016 354.26006222 308.24555016 354.26006222 305.49164391 353.71318722 C301.58652128 351.96504568 297.81802056 350.04933244 294.05805016 348.01006222 C293.30338463 347.6045715 292.5487191 347.19908077 291.77118492 346.78130245 C290.26905986 345.97330596 288.76797015 345.1633812 287.26801109 344.35137081 C285.60204983 343.45242744 283.92867318 342.56724052 282.25336266 341.68584347 C276.58934255 338.68167475 271.12556228 335.39435472 265.68305016 332.01006222 C264.97914146 331.5731506 264.27523277 331.13623898 263.54999352 330.68608761 C260.90138104 329.02175461 258.46510518 327.47961724 256.24555016 325.26006222 C256.74439199 320.57354345 260.1277942 318.09267103 263.37055016 315.01006222 C264.56368107 313.84646345 265.75510052 312.68110711 266.94476891 311.51396847 C267.51759605 310.95338741 268.0904232 310.39280636 268.68060875 309.815238 C273.6654362 304.86151712 277.95171623 299.47319548 281.98383141 293.72881222 C282.40019859 293.24412472 282.81656578 292.75943722 283.24555016 292.26006222 C283.90555016 292.26006222 284.56555016 292.26006222 285.24555016 292.26006222 C285.51560875 291.68981319 285.78566734 291.11956417 286.06390953 290.53203487 C287.28239754 288.18921474 288.65463247 286.08315932 290.15180016 283.90849972 C297.81636924 272.66376301 304.95892111 261.33354645 311.24555016 249.26006222 C311.65587486 248.48976681 312.06619957 247.7194714 312.48895836 246.9258337 C315.72789126 240.69445546 318.13580149 234.36946883 320.30805016 227.69756222 C320.65239098 226.6497961 320.9967318 225.60202999 321.35150719 224.52251339 C325.27421131 212.37439485 328.17310803 200.27439156 329.85101891 187.60381222 C330.24555016 185.26006222 330.24555016 185.26006222 331.24555016 184.26006222 C333.17861514 184.16610165 335.11513854 184.14262704 337.0504818 184.14653683 C338.29169289 184.14661236 339.53290398 184.14668789 340.81172752 184.14676571 C342.17638755 184.15187311 343.54104718 184.15708912 344.90570641 184.16240597 C346.29433199 184.16427021 347.68295823 184.16569409 349.0715847 184.16669369 C352.7327613 184.17051835 356.39389846 184.18034819 360.05505943 184.19139767 C363.78847269 184.2016129 367.52189248 184.20624625 371.25531578 184.21123409 C378.58542879 184.22144032 385.91543336 184.24101196 393.24555016 184.26006222 C393.24555016 171.06006222 393.24555016 157.86006222 393.24555016 144.26006222 C346.05555016 144.26006222 298.86555016 144.26006222 250.24555016 144.26006222 C250.24555016 131.06006222 250.24555016 117.86006222 250.24555016 104.26006222 C237.04555016 104.26006222 223.84555016 104.26006222 210.24555016 104.26006222 C210.24555016 117.79006222 210.24555016 131.32006222 210.24555016 145.26006222 C156.45555016 145.26006222 102.66555016 145.26006222 47.24555016 145.26006222 C47.24555016 158.13006222 47.24555016 171.00006222 47.24555016 184.26006222 C127.76555016 184.26006222 208.28555016 184.26006222 291.24555016 184.26006222 C286.70750598 213.75734935 276.515008 238.30226654 258.71283531 262.28008175 C257.66896614 263.68869722 256.63878198 265.10749871 255.61810875 266.53301144 C255.0865316 267.26664913 254.55495445 268.00028683 254.00726891 268.75615597 C253.52604576 269.42703243 253.04482262 270.0979089 252.54901695 270.78911495 C252.11887291 271.27452755 251.68872887 271.75994015 251.24555016 272.26006222 C250.58555016 272.26006222 249.92555016 272.26006222 249.24555016 272.26006222 C249.02898766 272.79373409 248.81242516 273.32740597 248.58930016 273.87724972 C246.75619874 277.12780746 244.29139954 279.68903633 241.74555016 282.38506222 C241.21381187 282.95112179 240.68207359 283.51718136 240.13422203 284.10039425 C239.04113284 285.25960295 237.94542107 286.41634421 236.84711266 287.57060909 C235.3417863 289.15854482 233.85532353 290.7623152 232.37055016 292.36943722 C231.50430016 293.28209347 230.63805016 294.19474972 229.74555016 295.13506222 C228.97211266 295.95748409 228.19867516 296.77990597 227.40180016 297.62724972 C225.24555016 299.26006222 225.24555016 299.26006222 223.19867516 299.20146847 C220.99359247 298.13861861 219.33881552 296.93345011 217.49555016 295.32256222 C216.88195641 294.79791378 216.26836266 294.27326534 215.63617516 293.73271847 C214.24555016 292.26006222 214.24555016 292.26006222 214.24555016 290.26006222 C213.58555016 290.26006222 212.92555016 290.26006222 212.24555016 290.26006222 C212.24555016 289.60006222 212.24555016 288.94006222 212.24555016 288.26006222 C211.44890953 287.95068722 211.44890953 287.95068722 210.63617516 287.63506222 C207.2378158 285.6804503 204.73499087 283.03882505 201.99555016 280.26006222 C201.44125328 279.71349972 200.88695641 279.16693722 200.31586266 278.60381222 C196.24555016 274.51344892 196.24555016 274.51344892 196.24555016 272.26006222 C195.38510094 271.91974972 195.38510094 271.91974972 194.50726891 271.57256222 C191.62031962 269.89723414 190.10896416 267.89001387 188.05805016 265.26006222 C185.12687847 261.56984118 182.14907174 258.01662897 178.93305016 254.57256222 C170.13187872 244.90822861 162.6485096 234.00981414 155.24555016 223.26006222 C153.43981346 220.70036448 151.63280624 218.14158075 149.82367516 215.58428097 C148.20067506 213.19397142 146.70903859 210.75063742 145.24555016 208.26006222 C140.01730525 211.09298787 134.80108098 213.94456072 129.61273766 216.84990597 C128.40883385 217.52303829 128.40883385 217.52303829 127.18060875 218.20976925 C125.57036135 219.11095243 123.96128927 220.01423925 122.35346031 220.91973019 C121.60628746 221.33754757 120.85911461 221.75536495 120.08930016 222.18584347 C119.42092125 222.56136349 118.75254234 222.93688351 118.06390953 223.32378292 C116.24555016 224.26006222 116.24555016 224.26006222 113.24555016 225.26006222 C113.85644881 228.21470882 114.77526096 230.39772277 116.39008141 232.93974972 C116.81998375 233.62166378 117.24988609 234.30357784 117.69281578 235.00615597 C118.14334312 235.70869503 118.59387047 236.41123409 119.05805016 237.13506222 C119.49697594 237.82986691 119.93590172 238.52467159 120.38812828 239.24053097 C122.39817853 242.41240817 124.43959157 245.55040925 126.56976891 248.64287472 C128.24555016 251.26006222 128.24555016 251.26006222 128.24555016 253.26006222 C128.90555016 253.26006222 129.56555016 253.26006222 130.24555016 253.26006222 C131.80414391 255.17412472 131.80414391 255.17412472 133.68305016 257.88506222 C136.97053285 262.51987389 140.35503567 267.04566993 143.87055016 271.51006222 C144.34009117 272.10738155 144.80963219 272.70470089 145.29340172 273.32012081 C147.7689581 276.45076629 150.29353116 279.51486336 152.93305016 282.51006222 C155.24555016 285.26006222 155.24555016 285.26006222 155.24555016 287.26006222 C155.90555016 287.26006222 156.56555016 287.26006222 157.24555016 287.26006222 C158.58539391 288.58818722 158.58539391 288.58818722 160.18305016 290.51006222 C170.08120987 302.13321242 180.45890869 313.52327145 192.24555016 323.26006222 C191.06764317 326.79378318 190.28517332 327.16808927 187.22992516 329.11553097 C186.39719078 329.6517004 185.56445641 330.18786983 184.70648766 330.74028683 C183.36457359 331.58538815 183.36457359 331.58538815 181.99555016 332.44756222 C181.08547203 333.02836544 180.17539391 333.60916866 179.23773766 334.20757198 C176.57891095 335.90017316 173.9128263 337.58081988 171.24555016 339.26006222 C169.97967013 340.06695392 168.71400854 340.87418856 167.44867516 341.68193722 C161.55347266 345.39160123 155.58836091 348.67350669 149.31976891 351.70537472 C145.99857346 353.38496276 142.82364717 355.2404801 139.62055016 357.13506222 C133.54962904 360.69688592 127.27993352 363.61167183 120.81342125 366.38262081 C116.94697048 368.04092791 113.16510992 369.78393786 109.41742516 371.69756222 C103.97527549 374.45066823 98.39600943 376.78420236 92.74555016 379.07256222 C91.75812828 379.47926144 90.77070641 379.88596066 89.75336266 380.30498409 C82.50224658 383.26006222 82.50224658 383.26006222 80.24555016 383.26006222 C84.20555016 395.14006222 88.16555016 407.02006222 92.24555016 419.26006222 C95.87555016 418.27006222 99.50555016 417.28006222 103.24555016 416.26006222 C102.14272128 420.67137774 100.71797161 422.40049459 97.80805016 425.82256222 C95.46830073 428.59045199 93.25679042 431.24320182 91.24555016 434.26006222 C90.58555016 434.26006222 89.92555016 434.26006222 89.24555016 434.26006222 C88.90523766 435.03349972 88.90523766 435.03349972 88.55805016 435.82256222 C86.76337398 439.15553226 84.7459 442.40709893 82.24555016 445.26006222 C81.58555016 445.26006222 80.92555016 445.26006222 80.24555016 445.26006222 C80.03027672 445.78342159 79.81500328 446.30678097 79.59320641 446.84599972 C77.7051862 450.22801852 75.22102375 452.97337932 72.68305016 455.88506222 C69.09981338 459.81827153 69.09981338 459.81827153 66.24555016 464.26006222 C65.58555016 464.26006222 64.92555016 464.26006222 64.24555016 464.26006222 C64.01867516 464.77568722 63.79180016 465.29131222 63.55805016 465.82256222 C61.76337398 469.15553226 59.7459 472.40709893 57.24555016 475.26006222 C56.58555016 475.26006222 55.92555016 475.26006222 55.24555016 475.26006222 C55.01867516 475.79760128 54.79180016 476.33514034 54.55805016 476.88896847 C52.83671482 479.99864272 50.57439795 482.53710892 48.24555016 485.19756222 C43.74347439 490.40508076 39.48870072 495.74406338 35.41937828 501.29692745 C34.40642708 502.65277859 33.33133045 503.96180045 32.24555016 505.26006222 C31.58555016 505.26006222 30.92555016 505.26006222 30.24555016 505.26006222 C29.93617516 505.87881222 29.62680016 506.49756222 29.30805016 507.13506222 C28.62055016 508.51006222 27.93305016 509.88506222 27.24555016 511.26006222 C26.58555016 511.26006222 25.92555016 511.26006222 25.24555016 511.26006222 C25.02512047 511.78857784 24.80469078 512.31709347 24.57758141 512.86162472 C22.76369136 516.12769067 20.36958981 518.82640827 17.93305016 521.63506222 C16.97841116 522.74685947 16.02398298 523.85883776 15.06976891 524.97099972 C14.5970858 525.5128088 14.12440269 526.05461788 13.63739586 526.61284542 C12.7091054 527.71145544 11.81365659 528.83866741 10.95331383 529.99126339 C7.85125505 534.0906945 7.85125505 534.0906945 4.77289391 534.95146847 C-12.51568323 534.09095105 -26.57997199 528.27834941 -39.50444984 516.82256222 C-40.24694984 515.97693722 -40.98944984 515.13131222 -41.75444984 514.26006222 C-42.29456703 513.65033566 -42.83468422 513.04060909 -43.39116859 512.41240597 C-51.60941619 502.58972825 -56.99791556 490.50720596 -57.01171875 477.62586689 C-57.01522482 476.88555381 -57.0187309 476.14524073 -57.02234322 475.38249391 C-57.03163427 472.90609142 -57.02673986 470.42992528 -57.02187538 467.95351315 C-57.02561281 466.15832186 -57.0302147 464.3631322 -57.03560603 462.56794512 C-57.04784022 457.63775369 -57.04757505 452.7076301 -57.04521728 447.77742696 C-57.04480921 442.45890428 -57.05584736 437.14040337 -57.06533241 431.82189083 C-57.08194626 421.40234492 -57.08744216 410.98282163 -57.08855717 400.56326358 C-57.08950757 392.09242822 -57.09361745 383.62160033 -57.09995842 375.15076733 C-57.11757274 351.13081181 -57.12679712 327.11087417 -57.12529747 303.09091215 C-57.12521756 301.7959553 -57.12513765 300.50099846 -57.12505531 299.1668005 C-57.12497355 297.870261 -57.12489179 296.57372151 -57.12480755 295.23789294 C-57.12399485 274.23087851 -57.14312814 253.22393581 -57.17133205 232.21694212 C-57.20006758 210.64358588 -57.21387193 189.07026462 -57.21214449 167.49688876 C-57.21148077 155.38656786 -57.21696522 143.27632214 -57.2385006 131.16601849 C-57.25672128 120.85363188 -57.26105246 110.54135452 -57.24748175 100.22895877 C-57.24095633 94.96963109 -57.24081962 89.71051294 -57.25818825 84.45120525 C-57.27394286 79.63094131 -57.27103083 74.81105264 -57.25361998 69.99079771 C-57.25055534 68.25256205 -57.25416218 66.51429822 -57.26534013 64.77609579 C-57.37898703 45.84051592 -52.42627144 30.54522156 -39.13335609 16.51006222 C-28.38499937 6.34412876 -14.86933011 0.02207952 0 0 Z " fill="#000000" transform="translate(117.75444984436035,60.7399377822876)"/>
<path d="M0 0 C6.13636364 2.45454545 6.13636364 2.45454545 9 5 C9 5.66 9 6.32 9 7 C9.515625 7.226875 10.03125 7.45375 10.5625 7.6875 C13.89547005 9.48217618 17.14703671 11.49965015 20 14 C20 14.66 20 15.32 20 16 C20.53753906 16.226875 21.07507813 16.45375 21.62890625 16.6875 C24.7385805 18.40883534 27.27704671 20.67115221 29.9375 23 C35.14501854 27.50207576 40.48400117 31.75684943 46.03686523 35.82617188 C47.39271638 36.83912308 48.70173824 37.9142197 50 39 C50 39.66 50 40.32 50 41 C50.928125 41.4640625 50.928125 41.4640625 51.875 41.9375 C53.25 42.625 54.625 43.3125 56 44 C56 44.66 56 45.32 56 46 C56.52335938 46.21527344 57.04671875 46.43054688 57.5859375 46.65234375 C60.96795631 48.54036396 63.7133171 51.0245264 66.625 53.5625 C70.55820931 57.14573678 70.55820931 57.14573678 75 60 C75 60.66 75 61.32 75 62 C75.515625 62.226875 76.03125 62.45375 76.5625 62.6875 C79.89547005 64.48217618 83.14703671 66.49965015 86 69 C86 69.66 86 70.32 86 71 C86.52335937 71.21527344 87.04671875 71.43054688 87.5859375 71.65234375 C90.96795631 73.54036396 93.7133171 76.0245264 96.625 78.5625 C100.55820931 82.14573678 100.55820931 82.14573678 105 85 C105 85.66 105 86.32 105 87 C105.515625 87.226875 106.03125 87.45375 106.5625 87.6875 C109.89547005 89.48217618 113.14703671 91.49965015 116 94 C116 94.66 116 95.32 116 96 C116.8353125 96.37125 116.8353125 96.37125 117.6875 96.75 C120.44160479 98.23870529 122.69174514 99.88409972 125 102 C125 102.99 125 103.98 125 105 C122.85312411 106.89675442 120.7296295 108.60899166 118.4375 110.3125 C117.14876046 111.29298522 115.86098931 112.27474465 114.57421875 113.2578125 C113.95466309 113.72864258 113.33510742 114.19947266 112.69677734 114.68457031 C110.64396988 116.27601299 108.68875607 117.95956815 106.75 119.6875 C104 122 104 122 102 122 C102 122.66 102 123.32 102 124 C100.26608049 125.60634015 98.461909 127.1375287 96.625 128.625 C95.62726563 129.44226563 94.62953125 130.25953125 93.6015625 131.1015625 C91 133 91 133 89 133 C89 133.66 89 134.32 89 135 C87.5234375 136.3046875 87.5234375 136.3046875 85.375 137.875 C80.39114941 141.63266513 75.67779068 145.65157423 70.96240234 149.73583984 C61.40772649 158 61.40772649 158 59 158 C59 158.66 59 159.32 59 160 C57.26953125 161.55859375 57.26953125 161.55859375 54.8125 163.4375 C49.95352098 167.22362753 45.24028479 171.1448778 40.5559082 175.14233398 C31.33169158 183 31.33169158 183 29 183 C29 183.66 29 184.32 29 185 C26.84756216 186.82703461 24.6863783 188.54917957 22.4375 190.25 C21.14873372 191.23957682 19.8609623 192.23045072 18.57421875 193.22265625 C17.95466309 193.69977051 17.33510742 194.17688477 16.69677734 194.66845703 C14.65173859 196.27329751 12.69246049 197.96040827 10.75 199.6875 C8 202 8 202 6 202 C6 202.66 6 203.32 6 204 C3 206 3 206 0 206 C0 185.87 0 165.74 0 145 C-7.40050781 145.03480469 -14.80101562 145.06960938 -22.42578125 145.10546875 C-27.10612765 145.12079215 -31.78644325 145.13523366 -36.46679688 145.14648438 C-43.90037435 145.1644378 -51.33384127 145.18570684 -58.76733398 145.22631836 C-64.75844219 145.2588459 -70.74943189 145.27683913 -76.74062157 145.28463173 C-79.02964329 145.29018711 -81.31865832 145.30103499 -83.60762978 145.31719017 C-86.80667916 145.3388764 -90.00523499 145.34197059 -93.2043457 145.34057617 C-94.15668594 145.351362 -95.10902618 145.36214783 -96.09022522 145.3732605 C-96.96100708 145.36913651 -97.83178894 145.36501251 -98.72895813 145.36076355 C-99.48575017 145.36352893 -100.24254221 145.36629431 -101.02226734 145.36914349 C-103.54601447 144.89808649 -104.45191883 144.01184568 -106 142 C-106 141.34 -106 140.68 -106 140 C-106.66 140 -107.32 140 -108 140 C-108 139.34 -108 138.68 -108 138 C-108.639375 137.731875 -109.27875 137.46375 -109.9375 137.1875 C-112 136 -112 136 -113 133 C-113.66 133 -114.32 133 -115 133 C-115 132.34 -115 131.68 -115 131 C-115.8971875 130.5978125 -115.8971875 130.5978125 -116.8125 130.1875 C-118.99847854 129.00082594 -120.41332594 127.90400887 -122 126 C-122 125.34 -122 124.68 -122 124 C-122.66 124 -123.32 124 -124 124 C-124 123.34 -124 122.68 -124 122 C-124.639375 121.731875 -125.27875 121.46375 -125.9375 121.1875 C-128 120 -128 120 -129 117 C-129.66 117 -130.32 117 -131 117 C-131 116.34 -131 115.68 -131 115 C-131.598125 114.731875 -132.19625 114.46375 -132.8125 114.1875 C-134.99847854 113.00082594 -136.41332594 111.90400887 -138 110 C-138 109.34 -138 108.68 -138 108 C-138.66 108 -139.32 108 -140 108 C-140 107.34 -140 106.68 -140 106 C-140.639375 105.731875 -141.27875 105.46375 -141.9375 105.1875 C-144 104 -144 104 -145 101 C-145.66 101 -146.32 101 -147 101 C-147 100.34 -147 99.68 -147 99 C-147.598125 98.731875 -148.19625 98.46375 -148.8125 98.1875 C-150.99847854 97.00082594 -152.41332594 95.90400887 -154 94 C-154 93.34 -154 92.68 -154 92 C-154.66 92 -155.32 92 -156 92 C-156 91.34 -156 90.68 -156 90 C-156.639375 89.731875 -157.27875 89.46375 -157.9375 89.1875 C-160 88 -160 88 -161 85 C-161.66 85 -162.32 85 -163 85 C-163 84.34 -163 83.68 -163 83 C-163.598125 82.731875 -164.19625 82.46375 -164.8125 82.1875 C-166.99847854 81.00082594 -168.41332594 79.90400887 -170 78 C-170 77.34 -170 76.68 -170 76 C-170.66 76 -171.32 76 -172 76 C-172 75.34 -172 74.68 -172 74 C-172.9590625 73.5978125 -172.9590625 73.5978125 -173.9375 73.1875 C-176 72 -176 72 -177 69 C-177.66 69 -178.32 69 -179 69 C-179 68.34 -179 67.68 -179 67 C-179.639375 66.731875 -180.27875 66.46375 -180.9375 66.1875 C-183 65 -183 65 -184 62 C-123.28 62 -62.56 62 0 62 C0 41.54 0 21.08 0 0 Z " fill="#000000" transform="translate(388,675)"/>
<path d="M0 0 C2.33528415 0.17298401 3.69177582 0.70225369 5.37890625 2.33203125 C9 6.57211538 9 6.57211538 9 9 C9.66 9 10.32 9 11 9 C12.7265625 10.8984375 12.7265625 10.8984375 14.625 13.375 C15.25664062 14.18710937 15.88828125 14.99921875 16.5390625 15.8359375 C18 18 18 18 18 20 C18.66 20 19.32 20 20 20 C21.31153763 21.46809505 22.54994075 23.00195784 23.75 24.5625 C26.25763148 27.78855875 28.78701789 30.94466538 31.5 34 C34 37 34 37 34 39 C34.66 39 35.32 39 36 39 C37.7265625 40.8984375 37.7265625 40.8984375 39.625 43.375 C40.25664062 44.18710937 40.88828125 44.99921875 41.5390625 45.8359375 C43 48 43 48 43 50 C43.66 50 44.32 50 45 50 C46.49877503 51.65483608 47.92488473 53.37590512 49.3125 55.125 C50.51132812 56.62740234 50.51132812 56.62740234 51.734375 58.16015625 C52.48203125 59.09730469 53.2296875 60.03445313 54 61 C55.0164283 62.19127262 56.03611371 63.37979626 57.0625 64.5625 C59 67 59 67 59 69 C59.66 69 60.32 69 61 69 C64 72.46153846 64 72.46153846 64 75 C64.66 75 65.32 75 66 75 C67.62890625 76.80078125 67.62890625 76.80078125 69.5625 79.3125 C70.27277344 80.22257813 70.98304688 81.13265625 71.71484375 82.0703125 C72.46894531 83.03710938 73.22304688 84.00390625 74 85 C75.53561211 86.9007408 77.07722613 88.79664935 78.625 90.6875 C79.36878906 91.59757813 80.11257813 92.50765625 80.87890625 93.4453125 C82.73860405 95.68516952 84.63731175 97.87911003 86.5625 100.0625 C89 103 89 103 89 105 C89.66 105 90.32 105 91 105 C92.7265625 106.8984375 92.7265625 106.8984375 94.625 109.375 C95.25664062 110.18710937 95.88828125 110.99921875 96.5390625 111.8359375 C98 114 98 114 98 116 C98.66 116 99.32 116 100 116 C101.2890625 117.4609375 101.2890625 117.4609375 102.625 119.375 C103.07101562 120.00148438 103.51703125 120.62796875 103.9765625 121.2734375 C105 123 105 123 105 125 C84.54 125 64.08 125 43 125 C43 151.73 43 178.46 43 206 C15.61 206 -11.78 206 -40 206 C-40 179.27 -40 152.54 -40 125 C-60.13 125 -80.26 125 -101 125 C-100 121 -100 121 -99 119 C-98.34 119 -97.68 119 -97 119 C-96.78085938 118.48308594 -96.56171875 117.96617187 -96.3359375 117.43359375 C-94.45945789 114.01532826 -92.0578918 111.10041358 -89.625 108.0625 C-89.14289063 107.45470703 -88.66078125 106.84691406 -88.1640625 106.22070312 C-87.21978652 105.03137727 -86.27228783 103.84460165 -85.32128906 102.66064453 C-84.11530957 101.14492529 -82.94248975 99.6029733 -81.7734375 98.05859375 C-81.18820313 97.37925781 -80.60296875 96.69992187 -80 96 C-79.34 96 -78.68 96 -78 96 C-77.59817505 95.12734497 -77.59817505 95.12734497 -77.18823242 94.23706055 C-75.97954771 91.96149489 -74.64146034 90.17896792 -72.98828125 88.20703125 C-72.39821289 87.49796631 -71.80814453 86.78890137 -71.20019531 86.05834961 C-70.57725586 85.31721924 -69.95431641 84.57608887 -69.3125 83.8125 C-64.81702257 78.425836 -60.38577009 73.03111438 -56.234375 67.37109375 C-55.82703125 66.91863281 -55.4196875 66.46617187 -55 66 C-54.34 66 -53.68 66 -53 66 C-52.773125 65.46246094 -52.54625 64.92492187 -52.3125 64.37109375 C-50.59116466 61.2614195 -48.32884779 58.72295329 -46 56.0625 C-41.49792424 50.85498146 -37.24315057 45.51599883 -33.17382812 39.96313477 C-32.16087692 38.60728362 -31.0857803 37.29826176 -30 36 C-29.34 36 -28.68 36 -28 36 C-27.7421875 35.43796875 -27.484375 34.8759375 -27.21875 34.296875 C-25.85830223 31.73295421 -24.27211038 29.54773635 -22.5 27.25 C-21.8915625 26.45078125 -21.283125 25.6515625 -20.65625 24.828125 C-20.1096875 24.22484375 -19.563125 23.6215625 -19 23 C-18.34 23 -17.68 23 -17 23 C-16.78085938 22.48308594 -16.56171875 21.96617187 -16.3359375 21.43359375 C-14.45945789 18.01532826 -12.0578918 15.10041358 -9.625 12.0625 C-9.14289063 11.45470703 -8.66078125 10.84691406 -8.1640625 10.22070312 C-6.77990614 8.47734314 -5.39096037 6.73793395 -4 5 C-3.22398437 4.02933594 -2.44796875 3.05867187 -1.6484375 2.05859375 C-1.10445313 1.37925781 -0.56046875 0.69992187 0 0 Z " fill="#000000" transform="translate(244,511)"/>
<path d="M0 0 C2.62585523 1.25451884 4.93207939 2.75258431 7.33203125 4.40234375 C8.3890625 5.12035156 9.44609375 5.83835937 10.53515625 6.578125 C11.6966798 7.3736027 12.85813569 8.16917919 14.01953125 8.96484375 C21.48760912 14.06012756 28.89003953 19.10324932 36.90234375 23.31640625 C41.2068518 25.59272504 45.45387437 27.96929956 49.70703125 30.33984375 C51.29423489 31.22272087 52.88147161 32.10553852 54.46875 32.98828125 C55.65237712 33.64707547 56.83598431 34.3059055 58.01953125 34.96484375 C57.25303849 40.91699125 55.29225903 46.27489542 53.27929688 51.89257812 C49.8709987 61.72843612 48.72252107 71.30215286 48.70068359 81.6784668 C48.69063797 82.79198013 48.68059235 83.90549347 48.67024231 85.05274963 C48.63961613 88.69401585 48.62243264 92.33520925 48.60546875 95.9765625 C48.58674055 98.51675535 48.56716593 101.05694208 48.54678345 103.59712219 C48.50084505 109.57494687 48.4633749 115.55276531 48.43011057 121.53066903 C48.39172038 128.34342727 48.34235527 135.15609266 48.29212642 141.96877229 C48.18915956 155.96739368 48.09978604 169.96607502 48.01953125 183.96484375 C44.16077332 184.14561242 40.30311222 184.25481043 36.44140625 184.3515625 C34.80921143 184.42932922 34.80921143 184.42932922 33.14404297 184.50866699 C24.04718898 184.67962154 24.04718898 184.67962154 20.01171875 181.06445312 C17.1852664 177.99079124 15.12601647 174.55850754 13.01953125 170.96484375 C12.271875 170.04058594 11.52421875 169.11632812 10.75390625 168.1640625 C9.01953125 165.96484375 9.01953125 165.96484375 9.01953125 163.96484375 C8.35953125 163.96484375 7.69953125 163.96484375 7.01953125 163.96484375 C5.4609375 162.234375 5.4609375 162.234375 3.58203125 159.77734375 C-0.20409628 154.91836473 -4.12534655 150.20512854 -8.12280273 145.52075195 C-15.98046875 136.29653533 -15.98046875 136.29653533 -15.98046875 133.96484375 C-16.64046875 133.96484375 -17.30046875 133.96484375 -17.98046875 133.96484375 C-19.66051863 131.97877386 -21.23341584 129.98037308 -22.79296875 127.90234375 C-27.5073652 121.74998074 -32.44867126 115.85130083 -37.5637207 110.02905273 C-45.98046875 100.44414859 -45.98046875 100.44414859 -45.98046875 97.96484375 C-46.64046875 97.96484375 -47.30046875 97.96484375 -47.98046875 97.96484375 C-49.28515625 96.48828125 -49.28515625 96.48828125 -50.85546875 94.33984375 C-54.61313388 89.35599316 -58.63204298 84.64263443 -62.71630859 79.92724609 C-70.98046875 70.37257024 -70.98046875 70.37257024 -70.98046875 67.96484375 C-71.64046875 67.96484375 -72.30046875 67.96484375 -72.98046875 67.96484375 C-74.33420839 66.45580498 -75.61490276 64.88071677 -76.85546875 63.27734375 C-77.87253906 61.97216797 -77.87253906 61.97216797 -78.91015625 60.640625 C-79.59335937 59.75761719 -80.2765625 58.87460937 -80.98046875 57.96484375 C-81.72554688 57.09214844 -82.470625 56.21945312 -83.23828125 55.3203125 C-84.98046875 52.96484375 -84.98046875 52.96484375 -84.98046875 49.96484375 C-84.3884668 49.65893311 -83.79646484 49.35302246 -83.18652344 49.0378418 C-41.75200346 28.34553757 -41.75200346 28.34553757 -4.1796875 1.51953125 C-1.98046875 -0.03515625 -1.98046875 -0.03515625 0 0 Z " fill="#000000" transform="translate(341.98046875,411.03515625)"/>
<path d="M0 0 C0.99 0 1.98 0 3 0 C3.20568604 0.59200195 3.41137207 1.18400391 3.62329102 1.79394531 C7.51173516 12.98386776 11.40291789 24.17279447 15.32124329 35.35229492 C16.7482652 39.42422445 18.17391453 43.49661471 19.59448242 47.57080078 C24.24390658 60.8971752 28.98614443 74.18934007 33.74951172 87.4753418 C34.72446168 90.19550472 35.69821973 92.91609218 36.671875 95.63671875 C37.10787018 96.85097786 37.10787018 96.85097786 37.55267334 98.08976746 C38.37583029 100.3906426 39.18939254 102.69467702 40 105 C40.28830688 105.80595612 40.57661377 106.61191223 40.87365723 107.44229126 C41.14899292 108.23195282 41.42432861 109.02161438 41.70800781 109.83520508 C41.95641418 110.53962234 42.20482056 111.24403961 42.46075439 111.96980286 C43 114 43 114 43 118 C15.61 118 -11.78 118 -40 118 C-39.25510044 112.78570311 -38.31726987 108.3911573 -36.625 103.5 C-36.36734863 102.74066162 -36.10969727 101.98132324 -35.84423828 101.19897461 C-33.03058337 92.96811528 -30.09327672 84.77986126 -27.17028809 76.58734131 C-23.31983478 65.79508204 -19.57301702 54.97036396 -15.875 44.125 C-12.26229507 33.53481737 -8.6041184 22.96530796 -4.8125 12.4375 C-4.43786621 11.39674316 -4.06323242 10.35598633 -3.67724609 9.28369141 C-1.13819423 2.27638846 -1.13819423 2.27638846 0 0 Z " fill="#000000" transform="translate(695,602)"/>
</svg>
